<svg xmlns="http://www.w3.org/2000/svg" xmlns:xlink="http://www.w3.org/1999/xlink" width="49.168" height="54" viewBox="0 0 49.168 54"><defs><style>.a{fill:#fff;}.b{clip-path:url(#a);}</style><clipPath id="a"><rect class="a" width="49.168" height="54"/></clipPath></defs><g class="b"><path class="a" d="M282.348,557.057l-1.2,7.3c-4.175,5.806-9.911,9.355-13.2,11.39l-4.313,2.67-.005,0-4.308-2.667a67.521,67.521,0,0,1-5.69-3.833l-.416-8.956.02-.022a33.475,33.475,0,0,0,4.806,4.26c1.717,1.268,3.356,2.283,4.66,3.089l.927.574.005,0,.933-.578c3.983-2.464,11.1-6.868,13.978-14.518l.673-.88,2.891.963Z" transform="translate(-239.31 -524.419)"/><path class="a" d="M263.627,709.393v7.554l-4.308-2.666a67.5,67.5,0,0,1-5.69-3.833l-.416-8.956.02-.022a33.486,33.486,0,0,0,4.806,4.261c1.717,1.268,3.356,2.283,4.66,3.089Z" transform="translate(-239.31 -662.951)"/><path class="a" d="M49.169,6.278l-.192,5.192a85.458,85.458,0,0,1-.85,8.889l-4.355-1.1-1.907-.482c.352-2.572.6-5.162.693-7.543l-1.489-.377-.013,0L28.322,7.636l-.459-.116-3.541-.9-3.661.925-6.737,1.7L7.652,10.838l-.008,0-.044.011-.023.006-1.116.282a50.26,50.26,0,0,0,.524,9.087c.23,1.65.52,3.294.844,4.9L20.592,21.9l.07-.018,3.661-.925,2.812.711.729.184L40.8,25.121l6.234,1.574c-.286,1.426-.58,2.748-.865,3.919a25.8,25.8,0,0,1-.793,2.642c-.056.157-.114.313-.173.467q-.131.348-.273.687l-.068.164c-.031.075-.063.149-.095.223s-.054.124-.082.186q-.083.188-.168.373c-.042.092-.085.183-.128.273q-.3.631-.626,1.233c-.048.09-.1.178-.146.266-.03.055-.06.109-.09.163-.084.15-.17.3-.257.445-.04.07-.081.139-.123.207l-.117.193-.03.049c-.075.123-.151.244-.227.364-.046.075-.094.148-.143.222-.014.023-.028.044-.042.065-.059.09-.118.181-.178.27-.044.068-.089.133-.134.2s-.09.132-.135.2c-.028.041-.057.082-.085.123-.073.105-.147.209-.222.312.366-2.64.631-5.3.722-7.75l-1.489-.377-.013,0-1.821-.46-11.37-2.873L25.969,28l-1.646-.416-3.661.925-1.477.373L9.413,31.35l-1.76.445-.008,0-.044.011-.023.006-1.116.282a48.1,48.1,0,0,0,.366,7.868,26.69,26.69,0,0,1-4.351-9.349Q1.988,28.6,1.594,26.7A64.691,64.691,0,0,1,.045,10.85L.2,7.467.26,6.079,6.11,4.6l7.814-1.975,6.737-1.7L24.323,0l3.541.9Z" transform="translate(0)"/><path class="a" d="M459.419,385.8l6.234,1.574c-.286,1.426-.58,2.748-.865,3.919a25.8,25.8,0,0,1-.793,2.642c-.056.157-.113.313-.173.467q-.131.348-.273.687l-.068.164c-.031.075-.063.149-.095.223s-.054.124-.082.186q-.083.188-.168.373c-.042.091-.084.183-.128.273q-.3.631-.625,1.233c-.048.09-.1.178-.146.266-.03.055-.06.109-.09.163-.084.15-.17.3-.257.445-.04.07-.081.139-.123.207s-.077.128-.117.193l-.03.049c-.075.123-.151.244-.227.364-.046.075-.094.148-.143.222-.013.023-.028.044-.042.065-.059.09-.118.181-.178.27-.044.068-.089.133-.134.2s-.09.132-.135.2c-.029.041-.057.082-.085.123-.073.105-.147.209-.222.312.366-2.64.631-5.3.722-7.75l-1.489-.377-.013,0-1.821-.46-11.37-2.874-1.895-.479-1.646-.416v-6.625l2.812.711.729.184Z" transform="translate(-418.619 -360.682)"/><path class="a" d="M467.787,6.278l-.192,5.192a85.46,85.46,0,0,1-.85,8.889l-4.355-1.1-1.908-.482c.352-2.572.6-5.162.693-7.543l-1.489-.377-.013,0L446.94,7.636l-.459-.116-3.541-.9V0l3.541.9Z" transform="translate(-418.618)"/></g></svg>