<?xml version="1.0" encoding="UTF-8"?>
<svg xmlns="http://www.w3.org/2000/svg" viewBox="0 0 877.48 965.05">
  <defs>
    <style>
      .cls-1 {
        fill: #004ddc;
      }

      .cls-2, .cls-3 {
        opacity: .5;
      }

      .cls-4 {
        fill: #3b82f6;
      }

      .cls-5 {
        opacity: .4;
      }

      .cls-5, .cls-6, .cls-7 {
        fill: #525067;
      }

      .cls-8 {
        fill: #e3e2e5;
      }

      .cls-9 {
        fill: #fff;
      }

      .cls-9, .cls-6, .cls-10 {
        opacity: .3;
      }

      .cls-11 {
        fill: #f6b000;
      }

      .cls-12 {
        isolation: isolate;
      }

      .cls-13 {
        fill: #d79200;
      }

      .cls-14 {
        fill: #0063ee;
      }

      .cls-15 {
        fill: #c68100;
      }

      .cls-3, .cls-10 {
        mix-blend-mode: soft-light;
      }

      .cls-7 {
        opacity: .2;
      }

      .cls-16 {
        fill: #ffc900;
      }

      .cls-17 {
        fill: #ededed;
      }
    </style>
  </defs>
  <g class="cls-12">
    <g id="Layer_2" data-name="Layer 2">
      <g id="Layer_1-2" data-name="Layer 1">
        <g>
          <g>
            <polygon class="cls-16" points="794.61 120.63 818.38 129.78 795.83 138.62 786.8 161.36 777.88 138.62 755.22 129.78 778.73 121.27 786.8 98.2 794.61 120.63"/>
            <polygon class="cls-16" points="813.97 77.83 825.85 82.41 814.58 86.83 810.06 98.2 805.61 86.83 794.27 82.41 806.03 78.15 810.06 66.62 813.97 77.83"/>
          </g>
          <g>
            <g>
              <g>
                <polygon class="cls-14" points="648.97 273.79 671.08 129.43 598.49 119.74 648.97 273.79"/>
                <polygon class="cls-1" points="648.97 273.79 598.49 119.74 543.27 169.27 648.97 273.79"/>
              </g>
              <polygon class="cls-4" points="543.27 169.27 616.66 175 671.08 129.43 598.49 119.74 543.27 169.27"/>
              <polygon class="cls-1" points="572.29 159.38 612.07 162.49 641.56 137.79 602.22 132.53 572.29 159.38"/>
            </g>
            <g>
              <polygon class="cls-14" points="558.24 0 536.13 144.36 608.72 154.05 558.24 0"/>
              <polygon class="cls-1" points="558.24 0 608.72 154.05 663.94 104.52 558.24 0"/>
            </g>
          </g>
          <g>
            <path class="cls-10" d="m873.7,698l-435.26,264.24c-6.01,3.64-13.51,3.74-19.6.26l-243.55-139.15-48-27.43c-5.18-2.96-5.3-10.39-.22-13.52l434.14-267.44c5.71-3.53,12.89-3.62,18.69-.27l60.55,35,233.11,134.78c5.18,2.99,5.25,10.43.15,13.52Z"/>
            <g>
              <path class="cls-8" d="m437.69,908.42l431.69-262.07c6.72-4.08,6.61-13.86-.19-17.79l-290.03-167.69c-5.81-3.36-12.98-3.26-18.69.26L123.25,730.47c-3.7,2.28-3.61,7.69.16,9.84l294.68,168.37c6.09,3.48,13.6,3.38,19.6-.26Z"/>
              <path class="cls-8" d="m875.7,608.47l-1.69,35.08s-75.9-21.6-73.92-22.03c1.98-.43,75.6-13.05,75.6-13.05Z"/>
              <polygon class="cls-8" points="122.21 708.45 120.65 736.48 190.14 726.22 122.21 708.45"/>
              <path class="cls-17" d="m872.6,618.4l-435.26,264.24c-6.01,3.64-13.51,3.74-19.6.26l-243.55-139.15-48-27.43c-5.18-2.96-5.3-10.39-.22-13.52l434.14-267.44c5.71-3.53,12.89-3.62,18.69-.27l60.54,35,233.11,134.78c5.18,2.99,5.25,10.43.15,13.52Z"/>
              <path class="cls-5" d="m631.78,465.72l-457.59,278.03-48-27.43c-5.18-2.96-5.3-10.39-.22-13.52l434.14-267.44c5.71-3.53,12.89-3.62,18.69-.27l52.98,30.63Z"/>
              <g class="cls-2">
                <path class="cls-7" d="m774.08,623.73c.11,7.91-12.99,14.51-29.25,14.73-16.26.22-29.54-6.01-29.65-13.92-.11-7.91,12.99-14.51,29.25-14.73,16.26-.22,29.54,6.01,29.65,13.92Z"/>
                <path class="cls-6" d="m799.89,609.04c.11,7.91-12.99,14.51-29.25,14.73-16.26.22-29.54-6.01-29.65-13.92-.11-7.91,12.99-14.51,29.25-14.73,16.26-.22,29.54,6.01,29.65,13.92Z"/>
              </g>
              <path class="cls-5" d="m353.72,788.78l134.39-84.98c3.59-2.27,8.23-2,11.53.68h0c5.22,4.23,4.8,12.33-.84,16l-132.92,86.4c-3.88,2.52-8.99,2.02-12.3-1.2l-1.47-1.43c-4.59-4.46-3.8-12.04,1.61-15.47Z"/>
              <path class="cls-5" d="m392.35,815.61l80.67-53.22c4.27-2.82,9.92-2.33,13.64,1.18l.62.58c5.21,4.91,4.44,13.4-1.57,17.29l-81.28,52.64c-4.32,2.8-10,2.24-13.69-1.35h0c-5.05-4.91-4.26-13.24,1.62-17.12Z"/>
            </g>
            <g>
              <path class="cls-3" d="m602.55,669.86c.33,24.19-51.37,44.52-115.49,45.4-64.11.88-116.36-18.02-116.69-42.21-.33-24.19,51.37-44.52,115.49-45.4,64.11-.88,116.36,18.02,116.69,42.21Z"/>
              <g>
                <ellipse class="cls-13" cx="507.26" cy="459.32" rx="187.25" ry="163.98" transform="translate(-17.29 898.79) rotate(-82.12)"/>
                <ellipse class="cls-16" cx="492.85" cy="452.08" rx="187.25" ry="148.71" transform="translate(-22.55 878.27) rotate(-82.12)"/>
                <ellipse class="cls-11" cx="489.05" cy="451.55" rx="159.06" ry="125.82" transform="translate(-25.31 874.04) rotate(-82.12)"/>
                <path class="cls-10" d="m369.73,438.73c12.05-87.02,77.62-149.83,146.45-140.3,21.77,3.01,41.25,12.91,57.34,27.77-16.91-17.33-38.04-28.91-61.9-32.21-68.83-9.53-134.4,53.28-146.45,140.3-8.24,59.5,10.68,114.9,45.48,147.05-31.87-32.65-48.78-85.76-40.91-142.6Z"/>
                <g>
                  <path class="cls-13" d="m561.37,511.82l-.36,3c-3.69,29.73-26.38,48.07-50.56,40.91l-1.09-.32-1.95,15.9-28.18-8.34,1.97-15.89-11.55-3.42-1.97,15.89-28.18-8.34,1.97-15.89-6.58-1.95-13.97-4.13,4.29-34.61,13.99,4.14,5.14-41.56,4.31-34.63,4.63-37.42-13.97-4.13,4.29-34.64,13.97,4.13,6.58,1.95,2.41-19.44,28.18,8.34-2.41,19.44,11.55,3.42,2.41-19.44,28.18,8.34-2.43,19.61c21.89,8.18,36.69,35.94,33.26,63.49l-.35,2.85c-1.49,11.95-6.18,21.92-12.8,29.09,7.44,12.41,11.15,28.05,9.22,43.65Zm-28.54-5.34l.38-3c1.3-10.64-4.66-21.35-13.32-23.91l-3.65-1.08-43.72-12.94-5.16,41.55,6,1.77,41.38,12.25c8.66,2.56,16.77-4.01,18.09-14.64m-51.36-112.98l-4.65,37.41,43.74,12.94c7.75,2.29,15.04-3.57,16.22-13.11l.37-2.85c1.18-9.55-4.19-19.15-11.96-21.45l-37.75-11.17-5.97-1.77"/>
                  <polygon class="cls-13" points="499.51 570.22 507.39 571.31 494.94 557.22 499.51 570.22"/>
                  <polygon class="cls-13" points="459.78 558.47 467.67 559.56 457.73 549.45 459.78 558.47"/>
                  <polygon class="cls-13" points="417.32 493.54 425.21 494.64 427.09 505.12 417.32 493.54"/>
                  <polygon class="cls-13" points="435.72 345.31 443.61 346.4 450.16 357.43 435.72 345.31"/>
                  <polygon class="cls-13" points="458.68 331.95 466.56 333.04 468.94 341.13 458.68 331.95"/>
                  <polygon class="cls-13" points="498.41 343.71 506.29 344.8 534.47 353.14 526.58 352.05 498.41 343.71"/>
                  <polygon class="cls-15" points="486.86 340.29 494.74 341.38 492.33 360.82 484.45 359.73 486.86 340.29"/>
                  <path class="cls-15" d="m526.58,352.05l7.88,1.09-2.43,19.61s-1.32-.44-7.88-1.09l2.43-19.61Z"/>
                  <path class="cls-16" d="m553.48,510.73l-.36,3c-3.69,29.73-26.38,48.07-50.56,40.91l-1.09-.32-1.95,15.9-28.18-8.34,1.98-15.89-11.55-3.42-1.98,15.89-28.18-8.34,1.97-15.89-6.58-1.95-13.97-4.13,4.29-34.61,13.99,4.14,5.14-41.56,4.31-34.63,4.63-37.42-13.97-4.13,4.29-34.64,13.97,4.13,6.58,1.95,2.41-19.44,28.18,8.34-2.41,19.44,11.55,3.42,2.41-19.44,28.18,8.34-2.43,19.61c21.89,8.18,36.69,35.94,33.26,63.49l-.35,2.85c-1.49,11.95-6.18,21.92-12.8,29.09,7.44,12.41,11.15,28.05,9.22,43.65Zm-28.54-5.34l.38-3c1.3-10.64-4.66-21.35-13.32-23.91l-3.65-1.08-43.72-12.94-5.16,41.55,6,1.77,41.38,12.25c8.66,2.56,16.77-4.01,18.09-14.64m-51.36-112.98l-4.65,37.41,43.74,12.94c7.75,2.29,15.04-3.57,16.22-13.11l.37-2.85c1.18-9.55-4.19-19.15-11.96-21.45l-37.75-11.17-5.97-1.77"/>
                </g>
              </g>
            </g>
          </g>
          <g>
            <g>
              <g>
                <path class="cls-11" d="m228.3,301.39c5.16,5.43,8.32,12.35,9.61,20.38.92,5.62.9,11.78.03,18.34-.76,5.82-2.23,11.94-4.32,18.26-1.42,4.24-3.13,8.58-5.12,12.96-2.33,5.24-5.1,10.56-8.24,15.92-2.15,3.66-4.47,7.35-6.98,11.01-2.91,4.31-6.05,8.62-9.44,12.89-2.59,3.28-5.32,6.54-8.15,9.77-3.43,3.87-7.02,7.7-10.79,11.46-1.49,1.52-3.04,3.02-4.6,4.5-1.5,1.43-3.01,2.84-4.55,4.2-4.09,3.74-8.27,7.28-12.47,10.61-3.37,2.67-6.76,5.21-10.17,7.63-4.63,3.28-9.27,6.31-13.9,9.11-3.81,2.29-7.62,4.41-11.4,6.34-5.84,3-11.61,5.57-17.26,7.7-4.54,1.71-9.01,3.14-13.35,4.28-5.7,1.48-11.21,2.45-16.43,2.87-6.6.54-12.75.26-18.32-.94-7.96-1.69-14.71-5.19-19.87-10.62-5.16-5.43-8.32-12.35-9.6-20.37-.92-5.62-.91-11.8-.03-18.34,3.86-28.89,24.54-65.3,57.63-96.78,33.09-31.48,70.49-50.32,99.54-52.72,6.58-.56,12.75-.26,18.32.94,7.94,1.68,14.7,5.18,19.86,10.61Z"/>
                <rect class="cls-11" x="-8.86" y="349.33" width="256.32" height="46.85" transform="translate(-224.04 184.88) rotate(-43.57)"/>
              </g>
              <g class="cls-10">
                <path d="m148.86,394.5l36.04,37.89c-1.49,1.52-3.04,3.02-4.6,4.5-1.5,1.43-3.01,2.84-4.55,4.2l-36.04-37.89,9.15-8.7Z"/>
                <path d="m168.13,373.61l35.71,37.54c-2.59,3.28-5.32,6.54-8.15,9.77l-36.72-38.6,9.16-8.71Z"/>
                <path d="m186.12,351.38l34.12,35.87c-2.15,3.66-4.47,7.35-6.98,11.01l-36.31-38.17,9.16-8.71Z"/>
                <path d="m199.28,322.28l34.33,36.09c-1.42,4.24-3.13,8.58-5.12,12.96l-38.36-40.33,9.16-8.71Z"/>
                <path d="m190.88,272.33l47.03,49.44c.92,5.62.9,11.78.03,18.34l-56.2-59.08,9.15-8.7Z"/>
                <path d="m125.13,411.59l38.15,40.11c-3.37,2.67-6.76,5.21-10.17,7.63l-37.13-39.03,9.15-8.7Z"/>
                <path d="m100.52,427.76l38.68,40.67c-3.81,2.29-7.62,4.41-11.4,6.34l-36.44-38.31,9.15-8.7Z"/>
                <path d="m70.82,440.69l39.73,41.77c-4.54,1.71-9.01,3.14-13.35,4.28l-35.53-37.35,9.15-8.7Z"/>
                <path d="m19.72,425.44l61.04,64.17c-6.6.54-12.75.26-18.32-.94l-51.87-54.53,9.15-8.7Z"/>
              </g>
              <ellipse class="cls-16" cx="103.15" cy="355.78" rx="128.16" ry="65.09" transform="translate(-216.79 169.08) rotate(-43.57)"/>
              <ellipse class="cls-11" cx="103.15" cy="355.78" rx="88.54" ry="44.97" transform="translate(-216.79 169.08) rotate(-43.57)"/>
            </g>
            <g>
              <path class="cls-13" d="m147.56,320.57l.69.51c6.79,5.15,2.37,20.73-9.86,34.75l-.55.63,3.64,2.74-14.24,16.33-3.63-2.75-5.84,6.7,3.63,2.75-14.23,16.32-3.63-2.75-3.32,3.81-7.06,8.1-7.91-5.99,7.06-8.1-9.51-7.17-7.91-5.99-8.55-6.48-7.06,8.1-7.91-5.99,7.06-8.1,3.32-3.81-4.45-3.36,14.23-16.32,4.45,3.36,5.84-6.7-4.45-3.36,14.24-16.33,4.47,3.41c11.55-12.53,25.6-18.82,31.89-14.06l.66.49c2.73,2.06,3.55,5.9,2.76,10.62,6.63-3.31,12.6-4.05,16.16-1.35Zm-13.55,16.84l-.68-.52c-2.44-1.83-7.97.75-12.35,5.77l-1.85,2.12-22.1,25.34,9.5,7.19,3.02-3.47,20.92-23.99c4.38-5.02,5.96-10.6,3.52-12.43m-53.43,20.24l8.55,6.48,22.1-25.34c3.93-4.5,5.36-9.52,3.17-11.16l-.65-.5c-2.19-1.64-7.15.67-11.07,5.18l-19.07,21.87-3.02,3.47"/>
              <polygon class="cls-13" points="56.13 380.61 59.28 382.08 60.83 377.04 57.41 375.93 56.13 380.61"/>
              <polygon class="cls-13" points="90.01 406.24 93.16 407.71 92.96 399.31 90.01 406.24"/>
              <polygon class="cls-13" points="104.02 397.09 107.17 398.55 121.4 382.23 118.25 380.77 104.02 397.09"/>
              <polygon class="cls-13" points="124.09 374.07 127.25 375.53 141.49 359.2 138.34 357.73 124.09 374.07"/>
              <polygon class="cls-13" points="68.38 343.04 71.53 344.5 72.78 350.05 68.38 343.04"/>
              <polygon class="cls-13" points="88.46 320 91.62 321.47 91.75 327.24 88.46 320"/>
              <path class="cls-16" d="m144.41,319.1l.69.51c6.79,5.15,2.38,20.73-9.86,34.75l-.55.63,3.64,2.74-14.24,16.33-3.63-2.75-5.84,6.7,3.63,2.75-14.23,16.32-3.63-2.75-3.32,3.81-7.06,8.1-7.91-5.99,7.06-8.1-9.51-7.17-7.91-5.99-8.55-6.48-7.06,8.1-7.91-5.99,7.06-8.1,3.32-3.81-4.45-3.36,14.23-16.32,4.45,3.36,5.84-6.7-4.45-3.36,14.24-16.33,4.47,3.41c11.55-12.53,25.6-18.82,31.89-14.06l.66.49c2.73,2.06,3.55,5.9,2.76,10.62,6.63-3.31,12.6-4.05,16.16-1.35Zm-13.55,16.84l-.68-.52c-2.44-1.83-7.97.75-12.35,5.77l-1.85,2.12-22.1,25.34,9.5,7.19,3.02-3.47,20.92-23.99c4.38-5.02,5.96-10.6,3.52-12.43m-53.43,20.24l8.55,6.48,22.1-25.34c3.93-4.5,5.36-9.52,3.17-11.16l-.65-.5c-2.19-1.64-7.15.67-11.07,5.18l-19.07,21.87-3.02,3.47"/>
            </g>
            <path class="cls-9" d="m10.5,437.32c1.57,2.15,4.15,4.34,6.6,3.3,2.16-.91,2.67-3.89,1.85-6.08-.81-2.2-2.54-3.91-3.84-5.85-2.62-3.9-3.55-8.9-2.5-13.48.53-2.32,1.55-4.56,1.59-6.94.04-2.38-1.33-5.06-3.69-5.38-7.32-1-7.23,11.42-6.88,15.72.55,6.71,2.9,13.28,6.87,18.73Z"/>
          </g>
        </g>
      </g>
    </g>
  </g>
</svg>