<?xml version="1.0" encoding="UTF-8"?>
<svg xmlns="http://www.w3.org/2000/svg" viewBox="0 0 1000 1000">
  <defs>
    <style>
      .cls-1 {
        fill: #2563eb;
      }

      .cls-2 {
        fill: #004ddc;
      }

      .cls-3 {
        fill: #020617;
      }

      .cls-4 {
        opacity: .5;
      }

      .cls-5 {
        fill: #3b82f6;
      }

      .cls-6 {
        fill: #f6b000;
      }

      .cls-7 {
        isolation: isolate;
      }

      .cls-8 {
        fill: #d79200;
      }

      .cls-9 {
        fill: #0063ee;
      }

      .cls-10 {
        fill: #c68100;
      }

      .cls-11 {
        mix-blend-mode: soft-light;
        opacity: .3;
      }

      .cls-12 {
        fill: #ffd336;
      }

      .cls-13 {
        fill: #1d4ed8;
      }

      .cls-14 {
        fill: #ffdf80;
      }

      .cls-15 {
        fill: #ffc900;
      }

      .cls-16 {
        fill: #fbb200;
      }

      .cls-17 {
        fill: #dd9800;
      }
    </style>
  </defs>
  <g class="cls-7">
    <g id="Layer_1" data-name="Layer 1">
      <rect class="cls-3" x="-73.96" y="-61.7" width="1147.91" height="1123.4"/>
      <g>
        <g>
          <polygon class="cls-15" points="879.21 103.3 897.13 110.19 880.13 116.86 873.32 134 866.61 116.86 849.52 110.19 867.24 103.78 873.32 86.39 879.21 103.3"/>
          <polygon class="cls-15" points="893.81 71.04 902.76 74.49 894.27 77.82 890.86 86.39 887.5 77.82 878.96 74.49 887.82 71.28 890.86 62.58 893.81 71.04"/>
        </g>
        <g>
          <path class="cls-11" d="m478.82,846.11l218.48,90.98c2.29.95,4.86.97,7.16.05l211.58-84.63c7.65-3.06,8.02-13.75.6-17.33l-212.04-102.28c-2.5-1.2-5.39-1.25-7.93-.14l-218.01,95.93c-7.63,3.36-7.52,14.21.17,17.41Z"/>
          <g>
            <g>
              <g>
                <path class="cls-17" d="m480.04,821.33l218.48,90.98c2.29.95,4.86.97,7.16.05l211.58-84.63c7.65-3.06,8.02-13.75.6-17.33l-212.04-102.28c-2.5-1.2-5.39-1.25-7.93-.14l-218.01,95.93c-7.63,3.36-7.52,14.21.17,17.41Z"/>
                <polygon class="cls-17" points="474.21 760.32 474.29 813.69 923.19 819.37 923.19 767.48 474.21 760.32"/>
              </g>
              <path class="cls-16" d="m480.04,770.09l218.48,90.98c2.29.95,4.86.97,7.16.05l211.58-84.63c7.65-3.06,8.02-13.75.6-17.33l-212.04-102.28c-2.5-1.2-5.39-1.25-7.93-.14l-218.01,95.93c-7.63,3.36-7.52,14.21.17,17.41Z"/>
              <ellipse class="cls-11" cx="702.09" cy="756.8" rx="84.48" ry="31.88"/>
              <path class="cls-6" d="m501.95,761.12c0,2.38-5.12,4.32-11.44,4.32s-11.44-1.93-11.44-4.32,5.12-4.32,11.44-4.32,11.44,1.93,11.44,4.32Z"/>
              <path class="cls-6" d="m917.67,767.73c0,2.38-5.12,4.32-11.44,4.32s-11.44-1.93-11.44-4.32,5.12-4.32,11.44-4.32,11.44,1.93,11.44,4.32Z"/>
              <path class="cls-6" d="m713.53,849.55c0,2.38-5.12,4.32-11.44,4.32s-11.44-1.93-11.44-4.32,5.12-4.32,11.44-4.32,11.44,1.93,11.44,4.32Z"/>
            </g>
            <g>
              <ellipse class="cls-8" cx="729.22" cy="538.27" rx="188.39" ry="164.97" transform="translate(87.16 1178.01) rotate(-81.33)"/>
              <ellipse class="cls-15" cx="714.83" cy="530.79" rx="188.39" ry="149.61" transform="translate(82.33 1157.42) rotate(-81.33)"/>
              <ellipse class="cls-6" cx="711" cy="530.21" rx="160.02" ry="126.58" transform="translate(79.67 1153.15) rotate(-81.33)"/>
              <path class="cls-11" d="m591.15,515.66c13.32-87.37,80.15-149.65,149.26-139.11,21.85,3.33,41.31,13.55,57.3,28.73-16.77-17.67-37.86-29.61-61.83-33.26-69.11-10.54-135.94,51.74-149.26,139.11-9.11,59.74,9.16,115.74,43.72,148.55-31.6-33.29-47.89-86.94-39.18-144.02Z"/>
              <g>
                <path class="cls-8" d="m782.92,591.84l-.41,3.02c-4.12,29.85-27.2,47.99-51.43,40.46l-1.09-.34-2.19,15.97-28.23-8.78,2.21-15.96-11.57-3.6-2.21,15.96-28.23-8.78,2.21-15.96-6.59-2.05-13.99-4.35,4.8-34.76,14.01,4.36,5.75-41.73,4.82-34.78,5.17-37.57-13.99-4.35,4.8-34.78,13.99,4.35,6.59,2.05,2.69-19.52,28.23,8.78-2.69,19.52,11.57,3.6,2.69-19.52,28.23,8.78-2.72,19.69c21.91,8.53,36.41,36.66,32.58,64.32l-.39,2.87c-1.66,12-6.52,21.96-13.28,29.08,7.31,12.58,10.83,28.37,8.67,44.03Zm-28.64-5.76l.43-3.01c1.46-10.69-4.39-21.54-13.07-24.24l-3.66-1.14-43.8-13.62-5.77,41.73,6.01,1.87,41.46,12.89c8.68,2.7,16.93-3.8,18.4-14.48m-50.11-114.36l-5.2,37.57,43.82,13.63c7.77,2.41,15.18-3.38,16.5-12.97l.41-2.86c1.32-9.59-3.95-19.33-11.73-21.75l-37.82-11.76-5.99-1.86"/>
                <polygon class="cls-8" points="719.89 649.73 727.8 650.94 715.47 636.58 719.89 649.73"/>
                <polygon class="cls-8" points="680.09 637.36 688 638.56 678.15 628.25 680.09 637.36"/>
                <polygon class="cls-8" points="638.27 571.46 646.19 572.67 647.94 583.24 638.27 571.46"/>
                <polygon class="cls-8" points="658.83 422.6 666.75 423.8 673.19 434.99 658.83 422.6"/>
                <polygon class="cls-8" points="682.11 409.48 690.03 410.68 692.31 418.85 682.11 409.48"/>
                <polygon class="cls-8" points="721.91 421.85 729.82 423.06 758.06 431.84 750.14 430.63 721.91 421.85"/>
                <polygon class="cls-10" points="710.34 418.26 718.26 419.46 715.57 438.98 707.65 437.78 710.34 418.26"/>
                <path class="cls-10" d="m750.14,430.63l7.91,1.21-2.72,19.69s-1.32-.46-7.91-1.21l2.72-19.69Z"/>
                <path class="cls-15" d="m775.01,590.63l-.41,3.02c-4.12,29.85-27.2,47.99-51.43,40.46l-1.09-.34-2.19,15.97-28.23-8.78,2.21-15.96-11.57-3.6-2.21,15.96-28.23-8.78,2.21-15.96-6.59-2.05-13.99-4.35,4.8-34.76,14.01,4.36,5.75-41.73,4.82-34.78,5.17-37.57-13.99-4.35,4.8-34.78,13.99,4.35,6.59,2.05,2.69-19.52,28.23,8.78-2.69,19.52,11.57,3.6,2.69-19.52,28.23,8.78-2.72,19.69c21.91,8.53,36.41,36.66,32.58,64.32l-.39,2.87c-1.66,12-6.52,21.96-13.28,29.08,7.31,12.58,10.83,28.37,8.67,44.03Zm-28.64-5.76l.43-3.01c1.46-10.69-4.39-21.54-13.07-24.24l-3.66-1.14-43.8-13.62-5.77,41.73,6.01,1.87,41.46,12.89c8.68,2.7,16.93-3.8,18.4-14.48m-50.11-114.36l-5.2,37.57,43.82,13.63c7.77,2.41,15.18-3.38,16.5-12.97l.41-2.86c1.32-9.59-3.95-19.33-11.73-21.75l-37.82-11.76-5.99-1.86"/>
              </g>
            </g>
            <g class="cls-4">
              <polygon class="cls-15" points="469.81 205.49 702.08 302.21 937.21 208.16 711 117.95 469.81 205.49"/>
              <path class="cls-12" d="m469.81,205.49l4.39,554.83s-2.09,8.74,10.42,11.68l213.89,89.07,3.57-558.86-232.27-96.73Z"/>
              <path class="cls-14" d="m937.21,208.16l-14.02,559.31s4.51,4.84-5.94,9.02l-211.58,84.63s-3.52,2.4-7.16-.05c-3.64-2.45,3.57-558.86,3.57-558.86l235.13-94.05Z"/>
            </g>
          </g>
        </g>
        <g>
          <path class="cls-11" d="m66.7,802.34l132.1,55.01c1.38.58,2.94.59,4.33.03l127.93-51.17c4.62-1.85,4.85-8.31.36-10.48l-128.21-61.84c-1.51-.73-3.26-.76-4.79-.08l-131.82,58c-4.61,2.03-4.55,8.59.1,10.53Z"/>
          <g>
            <g>
              <g>
                <path class="cls-13" d="m66.74,779.49l133.75,55.7c1.4.58,2.97.59,4.38.03l129.53-51.81c4.68-1.87,4.91-8.42.37-10.61l-129.81-62.61c-1.53-.74-3.3-.77-4.85-.08l-133.47,58.73c-4.67,2.05-4.6,8.7.11,10.66Z"/>
                <polygon class="cls-13" points="63.17 742.14 63.22 774.81 338.04 778.29 338.04 746.52 63.17 742.14"/>
              </g>
              <path class="cls-1" d="m66.74,748.12l133.75,55.7c1.4.58,2.97.59,4.38.03l129.53-51.81c4.68-1.87,4.91-8.42.37-10.61l-129.81-62.61c-1.53-.74-3.3-.77-4.85-.08l-133.47,58.73c-4.67,2.05-4.6,8.7.11,10.66Z"/>
              <ellipse class="cls-11" cx="200.61" cy="742.14" rx="40.22" ry="15.18"/>
              <path class="cls-13" d="m80.16,742.63c0,1.46-3.14,2.64-7,2.64s-7-1.18-7-2.64,3.14-2.64,7-2.64,7,1.18,7,2.64Z"/>
              <path class="cls-13" d="m334.66,746.68c0,1.46-3.14,2.64-7,2.64s-7-1.18-7-2.64,3.14-2.64,7-2.64,7,1.18,7,2.64Z"/>
              <path class="cls-13" d="m209.69,796.77c0,1.46-3.14,2.64-7,2.64s-7-1.18-7-2.64,3.14-2.64,7-2.64,7,1.18,7,2.64Z"/>
            </g>
            <g>
              <g>
                <g>
                  <polygon class="cls-1" points="201.24 741.25 287.26 571.35 201.24 529.86 201.24 741.25"/>
                  <polygon class="cls-13" points="201.24 741.25 201.24 529.86 112.7 568.82 201.24 741.25"/>
                </g>
                <polygon class="cls-5" points="112.7 568.82 201.32 605.72 287.26 571.35 201.24 529.86 112.7 568.82"/>
                <polygon class="cls-2" points="152.67 568.35 200.7 588.35 247.28 569.72 200.66 547.23 152.67 568.35"/>
              </g>
              <g>
                <polygon class="cls-9" points="199.98 365.14 113.96 535.05 199.98 576.54 199.98 365.14"/>
                <polygon class="cls-2" points="199.98 365.14 199.98 576.54 288.52 537.58 199.98 365.14"/>
              </g>
            </g>
          </g>
        </g>
        <g>
          <polygon class="cls-15" points="225.84 196.01 209.69 243.13 259.5 235.06 275.66 187.26 225.84 196.01"/>
          <polygon class="cls-12" points="209.69 243.13 242.67 284.87 292.49 274.1 259.5 235.06 209.69 243.13"/>
          <polygon class="cls-14" points="275.66 187.26 310.33 226.3 292.49 274.1 259.5 235.06 275.66 187.26"/>
        </g>
      </g>
    </g>
  </g>
</svg>