<?xml version="1.0" encoding="UTF-8"?>
<svg xmlns="http://www.w3.org/2000/svg" xmlns:xlink="http://www.w3.org/1999/xlink" viewBox="0 0 855.29 804.81">
  <defs>
    <style>
      .cls-1 {
        fill: #004ddc;
      }

      .cls-2 {
        fill: #3b82f6;
      }

      .cls-3 {
        fill: #525067;
        opacity: .4;
      }

      .cls-4 {
        fill: #e3e2e5;
      }

      .cls-5 {
        fill: #f6b000;
      }

      .cls-6 {
        isolation: isolate;
      }

      .cls-7 {
        fill: #d79200;
      }

      .cls-8 {
        fill: #0063ee;
      }

      .cls-9 {
        fill: #c68100;
      }

      .cls-10 {
        mix-blend-mode: soft-light;
        opacity: .3;
      }

      .cls-11 {
        fill: #454559;
      }

      .cls-12 {
        clip-path: url(#clippath);
      }

      .cls-13 {
        fill: none;
      }

      .cls-14 {
        fill: #ffc900;
      }

      .cls-15 {
        fill: #ededed;
      }
    </style>
    <clipPath id="clippath">
      <polygon class="cls-13" points="319.51 410.61 592.58 403.08 637.48 163.5 301.46 169.82 319.51 410.61"/>
    </clipPath>
  </defs>
  <g class="cls-6">
    <g id="Layer_2" data-name="Layer 2">
      <g id="Layer_1-2" data-name="Layer 1">
        <g>
          <g>
            <polygon class="cls-14" points="385.96 59.33 412.07 69.37 387.31 79.09 377.38 104.05 367.59 79.09 342.7 69.37 368.52 60.02 377.38 34.68 385.96 59.33"/>
            <polygon class="cls-14" points="407.23 12.32 420.28 17.34 407.9 22.2 402.94 34.68 398.04 22.2 385.59 17.34 398.51 12.67 402.94 0 407.23 12.32"/>
          </g>
          <g>
            <path class="cls-10" d="m833.22,133.93l-.05.07c-4.1-5.86-10.87-9.89-19.02-9.89l-294.12.09c-35.05.01-67.36,18.96-84.48,49.55L120.35,736.94c-3.75,6.7-3.56,14.13-.63,20.2l-.09.02s.3.51.83,1.39c.03.05.06.1.09.15,3.09,5.17,13.14,22.03,17.11,28.72,3.43,6.96,10.48,12.1,19.31,12.26l297.88,5.12c32.14.55,61.98-16.6,77.68-44.65L852.3,188.81c4.23-7.56,3.72-15.98.04-22.62h.02s-19.13-32.26-19.13-32.26Z"/>
            <g>
              <g>
                <g>
                  <path class="cls-4" d="m112.42,723.56L427.62,160.38c17.12-30.59,49.43-49.54,84.48-49.55l294.12-.09c17.76,0,28.97,19.1,20.3,34.61l-319.77,571.33c-15.7,28.05-45.54,45.2-77.68,44.65l-297.88-5.12c-16.59-.28-26.88-18.18-18.77-32.66Z"/>
                  <path class="cls-4" d="m93.84,713.7s20.04,33.59,19.66,33.03c-.38-.56,114.2-67.73,114.2-67.73l-133.86,34.7Z"/>
                  <polygon class="cls-4" points="807.44 90.47 826.57 122.72 763.72 157.46 807.44 90.47"/>
                  <path class="cls-15" d="m94.57,693.47L409.77,130.29c17.12-30.59,49.43-49.54,84.48-49.55l294.12-.09c17.76,0,28.97,19.1,20.3,34.61l-319.77,571.33c-15.7,28.05-45.54,45.2-77.68,44.65l-297.88-5.12c-16.59-.29-26.88-18.18-18.77-32.66Z"/>
                </g>
                <polygon class="cls-3" points="172.04 601.97 516.12 579.52 782.51 127.06 434.64 129.51 172.04 601.97"/>
                <ellipse class="cls-3" cx="289.66" cy="656.38" rx="51.96" ry="31.38" transform="translate(-294.35 239.64) rotate(-30.68)"/>
              </g>
              <polygon class="cls-11" points="302.24 411.09 600.03 402.87 621.73 362.38 323.63 373.87 302.24 411.09"/>
              <path class="cls-10" d="m536.88,216.1c-9.49,3.56-19.22,8.46-28.93,14.77-53.96,35.05-87.12,99.84-74.06,144.71.12.39.24.78.36,1.17.1.36.19.72.29,1.08,5.92,20.34,21.24,32.5,41.76,36.11,9.85,1.88,20.82,1.68,32.42-.69,17.9-3.36,37.5-11.36,57.18-24.14,59.5-38.65,97.15-106.35,84.09-151.22-11.72-40.27-60.28-48.46-113.13-21.78Z"/>
              <g>
                <g class="cls-12">
                  <g>
                    <ellipse class="cls-7" cx="470.26" cy="315.94" rx="130.96" ry="149.55" transform="translate(-73 155.2) rotate(-17.41)"/>
                    <ellipse class="cls-14" cx="457.39" cy="315.63" rx="118.77" ry="149.55" transform="translate(-73.49 151.33) rotate(-17.41)"/>
                    <ellipse class="cls-5" cx="454.46" cy="316.55" rx="100.49" ry="127.03" transform="translate(-73.9 150.5) rotate(-17.41)"/>
                    <path class="cls-10" d="m363.93,348.01c-20.99-66.94,4.91-134.68,57.87-151.28,16.75-5.25,34.19-4.76,50.88.49-18.13-6.74-37.33-7.89-55.69-2.13-52.95,16.61-78.86,84.34-57.87,151.28,14.36,45.78,46.93,79.32,83.02,90.66-34.15-12.7-64.49-45.28-78.21-89.01Z"/>
                    <g>
                      <path class="cls-7" d="m527.25,335.39l.76,2.29c7.48,22.72-2.65,43.71-22.55,46.8l-.9.14,4.01,12.15-23.19,3.59-4-12.15-9.5,1.47,4,12.15-23.19,3.59-4-12.15-5.42.84-11.5,1.78-8.71-26.46,11.51-1.78-10.47-31.76-8.7-26.48-9.43-28.6-11.5,1.78-8.72-26.48,11.5-1.78,5.42-.84-4.89-14.86,23.19-3.59,4.89,14.86,9.5-1.47-4.89-14.86,23.19-3.59,4.94,14.99c18.6-1.57,38.76,13.43,45.68,34.49l.72,2.18c3,9.14,3.02,17.94.68,25.37,9.61,6.42,17.63,16.45,21.55,28.37Zm-22.43,5.89l-.75-2.29c-2.69-8.13-10.65-13.83-17.78-12.72l-3.01.47-35.99,5.58,10.45,31.76,4.93-.76,34.06-5.28c7.13-1.1,10.74-8.62,8.07-16.75m-75.64-64.05l9.41,28.6,36-5.58c6.38-.99,9.64-7.71,7.24-15.01l-.71-2.18c-2.4-7.3-9.56-12.4-15.95-11.41l-31.07,4.82-4.92.76"/>
                      <polygon class="cls-7" points="502.51 398.67 508.58 396.77 494.78 390.84 502.51 398.67"/>
                      <polygon class="cls-7" points="469.82 403.74 475.88 401.84 465.25 397.93 469.82 403.74"/>
                      <polygon class="cls-7" points="417 371.35 423.07 369.45 428.01 376.38 417 371.35"/>
                      <polygon class="cls-7" points="379.7 258.03 385.77 256.13 394.26 261.86 379.7 258.03"/>
                      <polygon class="cls-7" points="391.72 240.56 397.79 238.65 402.26 243.68 391.72 240.56"/>
                      <polygon class="cls-7" points="424.42 235.49 430.48 233.59 453.67 229.99 447.61 231.89 424.42 235.49"/>
                      <polygon class="cls-9" points="414.91 236.96 420.98 235.06 425.87 249.92 419.81 251.82 414.91 236.96"/>
                      <path class="cls-9" d="m447.61,231.89l6.06-1.9,4.94,14.99s-1.1.14-6.06,1.9l-4.94-14.99Z"/>
                      <path class="cls-14" d="m521.18,337.29l.76,2.29c7.48,22.72-2.65,43.71-22.55,46.8l-.9.14,4.01,12.15-23.19,3.59-4-12.15-9.5,1.47,4,12.15-23.19,3.59-4-12.15-5.42.84-11.5,1.78-8.71-26.46,11.51-1.78-10.47-31.76-8.7-26.48-9.43-28.6-11.5,1.78-8.72-26.48,11.5-1.78,5.42-.84-4.89-14.86,23.19-3.59,4.89,14.86,9.5-1.47-4.89-14.86,23.19-3.59,4.94,14.99c18.6-1.57,38.76,13.43,45.68,34.49l.72,2.18c3,9.14,3.02,17.94.68,25.37,9.61,6.42,17.63,16.45,21.55,28.37Zm-22.43,5.89l-.75-2.29c-2.69-8.13-10.65-13.83-17.78-12.72l-3.01.47-35.99,5.58,10.45,31.76,4.93-.76,34.06-5.28c7.13-1.1,10.74-8.62,8.07-16.75m-75.64-64.05l9.41,28.6,36-5.58c6.38-.99,9.64-7.71,7.24-15l-.71-2.18c-2.4-7.3-9.56-12.4-15.95-11.41l-31.07,4.82-4.92.76"/>
                    </g>
                  </g>
                </g>
                <path class="cls-10" d="m595.24,376.17c-3.17,9.59-7.27,18.71-12.24,27.18l-209.26,5.77c-4.68-5.89-9.01-12.2-12.92-18.89l234.42-14.06Z"/>
              </g>
            </g>
          </g>
          <g>
            <g>
              <g>
                <polygon class="cls-8" points="100.66 458.88 198.45 311.62 100.66 264.46 100.66 458.88"/>
                <polygon class="cls-1" points="100.66 458.88 100.66 264.46 0 308.75 100.66 458.88"/>
              </g>
              <polygon class="cls-2" points="0 308.75 100.75 350.7 198.45 311.62 100.66 264.46 0 308.75"/>
            </g>
            <polygon class="cls-1" points="0 264.46 97.79 317.66 198.45 264.46 97.79 215.28 0 264.46"/>
            <polygon class="cls-2" points="0 213.26 97.79 266.47 198.45 213.26 97.79 164.08 0 213.26"/>
            <g>
              <polygon class="cls-8" points="97.79 20.85 0 168.11 97.79 215.28 97.79 20.85"/>
              <polygon class="cls-1" points="97.79 20.85 97.79 215.28 198.45 170.98 97.79 20.85"/>
            </g>
          </g>
        </g>
      </g>
    </g>
  </g>
</svg>